<?xml version="1.0" encoding="utf-8"?>
<!-- Generator: Adobe Illustrator 24.2.1, SVG Export Plug-In . SVG Version: 6.00 Build 0)  -->
<svg version="1.1" id="svg" xmlns="http://www.w3.org/2000/svg" xmlns:xlink="http://www.w3.org/1999/xlink" x="0px" y="0px"
	 viewBox="0 0 400 397.1" style="enable-background:new 0 0 400 397.1;" xml:space="preserve">
<style type="text/css">
	.st0{fill-rule:evenodd;clip-rule:evenodd;fill:#FBFBFB;}
	.st1{fill-rule:evenodd;clip-rule:evenodd;fill:#44AC74;}
	.st2{fill-rule:evenodd;clip-rule:evenodd;fill:#3BA46C;}
</style>
<g id="svgg">
	<path id="path0" class="st0" d="M64,84c-0.3,0.4-0.4,30.7-0.3,115.1l0.1,114.6h47.7h47.7l0.1-0.9c0.1-0.5,0.8-1.3,1.7-1.9
		c0.9-0.5,1.6-1.3,1.6-1.6c0-0.3,0.4-0.8,1-1c0.5-0.2,1.2-0.9,1.6-1.5c0.3-0.6,1.1-1.4,1.8-1.6c0.8-0.3,1.2-0.7,1.2-1.2
		c0-0.5,0.5-1.1,1.6-1.6c0.9-0.4,1.7-1.2,1.8-1.6c0.1-0.4,0.4-0.8,0.6-0.8c0.2,0,1.4-1.1,2.7-2.4c1.3-1.3,2.6-2.6,2.9-2.9
		c0.3-0.3,1.1-1.1,1.7-1.7c0.6-0.7,1.3-1.3,1.4-1.5c4.8-4.7,6.1-5.9,6.4-5.9c0.2,0,0.6-0.5,0.9-1c0.3-0.6,1.1-1.5,1.9-2l1.3-1v-83
		v-83l-1.2-0.6c-0.6-0.3-1.5-1.1-1.9-1.8c-0.4-0.7-0.8-1.2-1-1.2c-0.4,0-4.6-4.1-4.8-4.9c-0.1-0.4-0.5-0.7-0.8-0.7
		c-0.3,0-1-0.6-1.6-1.4c-0.6-0.8-1.3-1.4-1.6-1.4c-0.3,0-0.9-0.6-1.3-1.2c-0.4-0.7-1.2-1.4-1.7-1.7c-0.5-0.3-1.1-0.9-1.4-1.4
		c-0.3-0.5-1-1.3-1.7-1.7c-0.7-0.4-1.2-1-1.2-1.3c0-0.3-0.5-0.9-1.2-1.2c-0.7-0.3-1.4-1.1-1.6-1.6c-0.2-0.5-0.8-1.2-1.4-1.4
		c-0.6-0.2-1.2-0.8-1.5-1.4c-0.3-0.6-1.1-1.3-1.8-1.6c-0.7-0.3-1.4-0.9-1.5-1.3c-0.1-0.4-0.7-0.8-1.2-1c-0.6-0.2-1.2-0.7-1.4-1.4
		c-0.3-0.9-0.8-1.2-2.1-1.6C154.3,83.1,64.6,83.2,64,84 M222.5,83.9l-1.3,0.4v114.5v114.5l0.9,0.2c2.3,0.6,45.5,0.3,45.7-0.4
		c0.1-0.3,0.2-17.4,0.2-37.9v-37.2l0.8-0.8c0.8-0.7,1.8-0.8,21.2-0.9l20.4-0.1l0.8-1.2c0.5-0.6,1.1-1.2,1.3-1.2
		c0.3,0,0.8-0.5,1.2-1.2c0.4-0.6,1.2-1.5,1.9-1.9c0.6-0.4,1.3-1,1.4-1.4c0.1-0.4,0.6-0.8,1-0.9c0.4-0.1,1.1-0.7,1.5-1.4
		c0.4-0.7,1.1-1.4,1.6-1.6c0.5-0.2,1.1-0.9,1.4-1.4c0.2-0.5,0.8-1.1,1.1-1.2c0.4-0.1,4.1-3.6,8.3-7.7c4.2-4.1,8-7.6,8.5-7.8
		c0.5-0.1,1.1-0.7,1.4-1.2c0.2-0.5,1-1.2,1.6-1.6c1.7-0.9,1.7-0.1,1.6-47.1l-0.1-42.3l-0.9-0.1c-0.5-0.1-1.2-0.7-1.7-1.4
		c-0.4-0.7-1.3-1.5-1.9-1.8c-0.6-0.3-1.3-0.8-1.4-1.2c-0.1-0.4-0.6-0.8-1-1c-0.4-0.1-1.1-0.8-1.5-1.5c-0.4-0.7-1.1-1.4-1.7-1.7
		c-0.5-0.3-1.1-0.9-1.4-1.4c-0.3-0.5-0.9-1.1-1.4-1.4c-0.5-0.3-1.2-1-1.5-1.5c-0.3-0.6-0.9-1.2-1.5-1.3c-0.5-0.1-1.1-0.7-1.4-1.3
		c-0.3-0.6-0.9-1.3-1.4-1.5c-0.5-0.2-1.2-0.9-1.4-1.4c-0.2-0.5-0.9-1.1-1.4-1.2c-0.5-0.1-3.1-2.4-5.8-5.1c-2.7-2.7-5.4-5.3-6.2-5.9
		l-1.3-1.1l-43.1,0C241.4,83.5,223.3,83.6,222.5,83.9 M143.9,125.6c0.5,0.3,1.1,0.8,1.4,1.1c1,1.2,0.7,143.2-0.3,144.2
		c-1.5,1.5-2.5,1.6-17.9,1.6H112l-1-1l-1-1l0.1-72.1c0.1-71.6,0.1-72.1,0.9-72.7C112.1,124.9,142.5,124.8,143.9,125.6 M297.6,125.8
		c0.6,0.7,1.1,57.6,0.5,64.4c-0.4,5.2,0.6,4.8-14.4,4.8c-14,0-14.2,0-15-1.6c-0.7-1.4-0.9-65.4-0.2-66.8c0.7-1.4,1.9-1.5,15.3-1.5
		C295.6,125.1,297.1,125.2,297.6,125.8"/>
	<path id="path1" class="st1" d="M0,198.6L0,198.6c0,109.7,88.9,198.6,198.6,198.6h1.4h1.4c109.7,0,198.6-88.9,198.6-198.6v0v0
		C400,88.9,311.1,0,201.4,0H200h-1.4C88.9,0,0,88.9,0,198.6L0,198.6 M156.9,78.1c0.4,0.5-4.8,0.6-46.6,0.6
		c-25.9,0-47.1-0.1-47.1-0.3s0.1-0.5,0.3-0.6C64,77.1,156.4,77.4,156.9,78.1 M310.8,77.7c2.2,0.8-3.2,1-45.1,1
		c-40.6,0-45.7-0.1-45.2-0.6C221,77.4,309.2,77.1,310.8,77.7 M314.4,79.7c1.2,0.5,0.8,2.1-0.6,2.1c-1.1,0-1.2-0.1-1.2-1.2
		C312.6,79.4,313.1,79.2,314.4,79.7 M218.9,198.8c0,97.3-0.1,118.5-0.5,118.4c-2.2-0.9-2.1,8.7-2.1-118.5V82.8l1-1.3
		c0.5-0.7,1.1-1.3,1.3-1.3C218.7,80.2,218.9,133.6,218.9,198.8 M155.9,81c0.2,0.2,1,0.6,1.8,0.9c1.6,0.6,3.2,1.9,3.2,2.6
		c0,0.3,0.2,0.5,0.5,0.5c0.7,0,5,4.1,5,4.7c0,0.2,0.4,0.7,0.9,0.9c0.5,0.3,2.2,1.8,3.8,3.4c1.6,1.6,3.1,2.9,3.2,2.9
		c0.2,0,0.5,0.5,0.8,1.2c0.3,0.8,0.7,1.2,1.2,1.2c0.5,0,1.1,0.6,1.6,1.3c0.5,0.7,1.3,1.5,1.9,1.8c2,0.8,13.9,13.2,14.3,15
		c0.6,2.3,0.6,160.8,0,162.7c-0.7,2-2.8,4.5-6.9,8.2c-2,1.8-6.2,5.9-9.5,9.2c-3.2,3.3-6.3,6.1-6.8,6.2s-1.3,0.8-1.7,1.6
		c-0.4,0.7-1.1,1.4-1.4,1.4c-0.3,0-0.9,0.5-1.2,1.2c-0.3,0.7-1,1.4-1.5,1.6c-0.5,0.2-1.2,0.9-1.6,1.6c-0.4,0.7-1,1.2-1.5,1.2
		c-0.5,0-1,0.4-1.4,1.4c-0.4,1-1,1.5-2,1.9c-0.8,0.3-1.4,0.6-1.4,0.8c0,1.1-3,1.2-47.4,1.2c-50.6,0-46.2,0.3-48.2-2.8l-1-1.5V198.6
		V84.2l0.9-1.2c1.8-2.4-1.2-2.3,48.4-2.3C135.1,80.6,155.7,80.8,155.9,81 M311.7,82c1.1,0.7,4.4,3.8,7.3,6.8c3,3,5.7,5.4,6,5.4
		c0.3,0,0.7,0.3,0.9,0.8c0.1,0.4,1,1.3,1.8,2c0.9,0.7,1.6,1.5,1.6,1.8c0,0.3,0.4,0.6,0.8,0.8c0.4,0.1,1.3,0.9,1.8,1.6
		c0.6,0.7,1.3,1.4,1.7,1.6c0.4,0.1,0.9,0.7,1.1,1.2c0.2,0.5,1,1.2,1.6,1.6c0.6,0.3,1.3,1,1.4,1.4c0.1,0.5,0.7,1,1.2,1.2
		c0.5,0.2,1.1,0.8,1.4,1.3c0.2,0.5,0.9,1.2,1.6,1.6c0.6,0.4,1.3,1.1,1.6,1.7c0.2,0.6,0.6,1,1,1c2.3,0,2.2-2.2,2.2,45.9
		c0,46.5,0,45.6-2,46.8c-0.7,0.4-1.4,1.1-1.6,1.7c-0.2,0.5-0.8,1.1-1.3,1.3c-0.5,0.2-4.1,3.4-7.9,7.3
		c-13.4,13.4-21.3,20.9-22.5,21.4c-0.9,0.4-6,0.5-20.1,0.5c-12.3,0-19.3,0.2-19.8,0.4c-0.8,0.4-0.8,1.2-0.8,37.3V313l-1,1.5
		c-1.9,3-0.2,2.8-25.7,2.8h-23l-0.8-1.3c-0.9-1.6-1.3-231.8-0.3-233.6c0.2-0.5,0.7-1.1,0.9-1.3c0.4-0.4,9.3-0.5,44.6-0.5l44.1,0
		L311.7,82 M317.4,82.9c1.2,1.1,0.9,1.7-0.7,1.7c-1.2,0-1.4-0.1-1.4-0.9C315.4,82.1,316.2,81.8,317.4,82.9 M58.6,314.1
		c-0.1,0.1-0.5,0-0.8-0.3c-1-0.8-0.9-229.2,0.1-230.2c0.7-0.7,0.7,4.8,0.8,114.8C58.7,261.9,58.7,314,58.6,314.1 M165.6,84.2
		c0,0.2-0.6,0.4-1.4,0.4c-1.6,0-1.6-0.1-0.8-1C164.1,83,165.6,83.4,165.6,84.2 M320.3,85.9c0.9,1.3,0.8,1.5-0.6,1.5
		c-1.1,0-1.2-0.1-1.2-1.2C318.6,84.8,319.4,84.6,320.3,85.9 M168.4,87.6c0,0.5-0.2,0.9-0.6,0.9c-0.6,0-1.2-1.8-0.8-2.4
		C167.4,85.5,168.4,86.6,168.4,87.6 M323,88.5c1.1,0.9,0.8,2-0.6,2c-0.9,0-1-0.2-1-1.4C321.4,87.6,321.7,87.5,323,88.5 M171,89.3
		c0.8,0.9,0.3,1.4-1.1,1c-0.6-0.2-1-0.5-1-1C168.8,88.3,170.1,88.3,171,89.3 M325.8,91.2c0.9,0.8,0.9,1.6,0.1,1.9
		c-1.4,0.5-1.8,0.3-1.8-1.1C324.1,90.4,324.7,90.2,325.8,91.2 M173.9,92.3c0.5,0.6,0.2,1.1-0.6,1.1c-0.3,0-0.5-0.4-0.5-0.8
		C172.8,91.6,173.3,91.5,173.9,92.3 M328.7,94c0.9,0.3,0.8,1.6-0.2,2c-1.1,0.3-1.7-0.3-1.4-1.4C327.4,93.7,327.6,93.6,328.7,94
		 M176.7,95.1c0.5,0.6,0.2,1.1-0.6,1.1c-0.3,0-0.5-0.4-0.5-0.8C175.6,94.4,176.1,94.3,176.7,95.1 M331.7,97.2
		c1.2,1.1,0.9,1.7-0.7,1.7c-1.5,0-1.5-0.1-1.1-1.5C330.2,96.4,330.8,96.3,331.7,97.2 M179.8,98.4c0.1,0.3-0.2,0.5-0.7,0.5
		c-0.5,0-0.8-0.3-0.8-0.6C178.4,97.6,179.6,97.7,179.8,98.4 M182.7,101.3c0,0.2-0.4,0.3-0.8,0.3c-0.8,0-1.1-0.8-0.5-1.3
		C181.7,100.1,182.7,100.8,182.7,101.3 M333.9,100.9c0.7,0.8,0.7,0.8-0.1,0.8c-0.6,0-0.9-0.2-0.9-0.8c0-0.4,0.1-0.8,0.1-0.8
		C333.1,100.1,333.5,100.5,333.9,100.9 M185.3,103.7c0.7,0.8,0.7,0.8-0.1,0.8c-0.6,0-0.9-0.2-0.9-0.8c0-0.4,0.1-0.8,0.1-0.8
		C184.5,102.9,184.9,103.2,185.3,103.7 M336.6,103.7c0.7,0.8,0.7,0.8-0.1,0.8c-0.6,0-0.9-0.2-0.9-0.8c0-0.4,0.1-0.8,0.1-0.8
		C335.9,102.9,336.2,103.2,336.6,103.7 M188.3,106.7c0.4,0.5,0.4,0.6-0.3,0.6c-0.5,0-0.8-0.3-0.8-0.6c0-0.3,0.2-0.6,0.3-0.6
		S188,106.3,188.3,106.7 M342.2,106.3c0.8,0.3,0.8,2.1,0.1,2.1c-0.3,0-0.7-0.3-0.8-0.6c-0.1-0.3-0.5-0.6-0.9-0.6
		c-0.5,0-0.6-0.1-0.2-0.6C341,106,341.2,105.9,342.2,106.3 M192.2,109.4c0.3,0.6,1,1.3,1.6,1.5c1.5,0.7,1.8,2.2,0.6,2.5
		c-1.3,0.3-1.8-0.1-1.8-1.6c0-1.3-0.1-1.4-1.4-1.4c-1.6,0-2-0.4-1.6-1.8C189.9,107.4,191.4,107.8,192.2,109.4 M345.4,109.7
		c0.2,0.5,0,1.1-0.4,1.5c-0.6,0.6-0.6,0.6-0.6-0.1c0-0.4-0.3-0.8-0.6-0.9c-1-0.4-0.7-1.3,0.4-1.3
		C344.8,108.8,345.2,109.1,345.4,109.7 M197,198.4c0,80,0,84.4-0.8,84.4c-0.2,0-0.4-35.1-0.4-84.3c0-74.9,0.1-84.2,0.6-83.8
		C197,115.2,197,125,197,198.4 M348.2,115.2c0.7,0.8,0.7,0.8-0.1,0.8c-0.6,0-0.9-0.2-0.9-0.8c0-0.4,0.1-0.8,0.1-0.8
		C347.4,114.4,347.8,114.8,348.2,115.2 M112.5,127c-0.4,0.3-0.5,14.9-0.4,72l0.1,71.7l14.3,0.1c7.9,0.1,14.7,0,15.2-0.1l0.9-0.2
		v-71.6c0-65-0.1-71.7-0.6-71.9C141,126.6,113.1,126.7,112.5,127 M272.2,127c-1.2,0.8-1.3,2.8-1.3,33v30.5l1,0.9
		c1,0.9,1.1,0.9,6.7,0.6c6.1-0.3,7.5-0.3,11.2-0.3c1.3,0,2.7,0,3,0c0.3,0,1.2,0.1,1.8,0.2c1.2,0.3,1.3,0.2,1.7-1
		c0.5-1.6,0.4-63-0.1-63.8C295.8,126.7,273.1,126.5,272.2,127 M115.2,198.5c0,37.7,0.1,69,0.2,69.5l0.2,0.9h11.4
		c10.1,0,11.5-0.1,11.7-0.6c0.1-0.3,0.2-31.6,0.2-69.4V130l1.1-1.1l1.1-1.1l0.3,1.3c0.1,0.7,0.3,32.7,0.3,71.1v69.9l-14.5,0.1
		l-14.5,0.1v-71.4v-71.4l1.2,1.2l1.2,1.2L115.2,198.5 M295.9,159v31.5l-11.6-0.1l-11.6-0.1l0-1.4c0-0.8,0.1-14.4,0.1-30.2
		c0.1-28.5,0.1-28.8,0.9-28.8c0.8,0,0.8,0.3,0.8,28.7c0,26.1,0.1,28.7,0.7,29.4c0.6,0.7,1.4,0.7,9.3,0.7h8.7l0.2-1.1
		c0.1-0.6,0.4-1.5,0.5-2.1c0.2-0.5,0.1-1.7-0.1-2.5c-0.3-1-0.2-2,0-2.9c0.3-1,0.3-1.8,0-2.8c-0.3-1-0.3-1.9,0-2.9
		c0.3-0.9,0.3-1.9,0-2.8c-0.3-0.9-0.2-1.9,0-2.9c0.3-1.1,0.3-2,0-2.9c-0.3-0.8-0.3-1.9,0-2.8c0.2-1,0.2-2.1,0-3
		c-0.2-0.9-0.2-1.9,0-2.8c0.3-0.9,0.3-1.9,0-2.9c-0.2-1-0.2-2,0-2.9c0.3-1,0.3-1.8,0-2.8c-0.3-1-0.3-1.9,0-2.9
		c0.3-0.9,0.3-1.9,0-2.8c-0.3-0.9-0.2-1.9,0-2.9c0.3-1.1,0.3-2,0-2.9c-0.3-0.9-0.3-1.9,0-2.8c0.2-1,0.2-2,0-2.8
		c-0.3-1.1,1-3.8,2-4.1C295.9,127.5,295.9,141.7,295.9,159 M348.4,205c-0.2,0.4-0.6,0.8-0.8,0.8s-0.4-0.4-0.4-0.8
		c0-0.5,0.3-0.8,0.8-0.8C348.7,204.2,348.7,204.3,348.4,205 M346.7,207.6c0.4,0.3-0.9,1.8-1.5,1.8c-0.8,0-1.4-1.3-1-2
		C344.4,207,346.2,207.2,346.7,207.6 M343.1,210.1c0.7,0.4,0.3,1.9-0.6,2.2c-0.9,0.3-1.3-0.1-1.3-1.1
		C341.2,209.8,342,209.3,343.1,210.1 M340.8,213.4c0,0.7-1.2,1.9-1.8,1.9c-0.3,0-0.5-0.5-0.5-1.2c0-1.1,0.1-1.2,1.2-1.2
		C340.3,212.9,340.8,213.1,340.8,213.4 M338,216.3c0,0.3-0.3,0.8-0.6,1.2c-1,1-1.8,0.8-1.8-0.6c0-1.1,0.1-1.2,1.2-1.2
		C337.6,215.7,338,215.9,338,216.3 M335.3,218.9c0,0.7-1.2,1.9-1.8,1.9c-0.3,0-0.5-0.5-0.5-1.2c0-1.1,0.1-1.2,1.2-1.2
		C334.7,218.5,335.3,218.7,335.3,218.9 M332.4,221.9c0.2,0.6-1,1.7-1.7,1.7c-0.7,0-1.1-1-0.8-1.8
		C330.1,221.1,332.1,221.2,332.4,221.9 M329.3,225c0,0.9-1,1.8-2,1.8c-0.5,0-0.6-2.1-0.2-2.5C327.9,223.6,329.3,224.1,329.3,225
		 M326.5,227.5c0,0.8-1.1,2.1-1.8,2.1c-0.3,0-0.5-0.5-0.5-1.4c0-1.3,0.1-1.4,1.2-1.4C326.2,226.8,326.5,227,326.5,227.5
		 M323.7,230.6c0,0.3-0.3,0.8-0.6,1.2c-1,1-1.8,0.8-1.8-0.6c0-1.1,0.1-1.2,1.2-1.2C323.3,230,323.7,230.2,323.7,230.6 M321,233.2
		c0,1.4-2.1,2.4-2.5,1.3c-0.5-1.4-0.3-1.8,1.1-1.8C320.4,232.8,321,233,321,233.2 M318.2,236.1c0,0.8-1.1,1.8-2,1.8
		c-0.6,0-0.8-0.3-0.8-1.2c0-1.1,0.1-1.2,1.4-1.2C317.7,235.6,318.2,235.7,318.2,236.1 M314.2,239.1c0,0.4-1,0.9-1.4,0.5
		c-0.5-0.5-0.2-0.9,0.6-0.9C313.8,238.7,314.2,238.9,314.2,239.1 M273.9,241.4c0.6,0.2,0.6,3.8,0.6,36.1c0,35.8,0,36.8-1.3,36.8
		c-0.2,0-0.3-16.4-0.3-36.5c0-20.1,0.1-36.5,0.2-36.5S273.5,241.2,273.9,241.4 M311.3,241.6c0.5,0.9-1.1,1.6-1.9,0.9
		c-0.6-0.5-0.6-0.7-0.2-1C309.9,241,310.9,241,311.3,241.6 M195,284.8c0,0.9-1,2-1.8,2c-0.4,0-0.6-0.4-0.6-1.4
		c0-1.3,0.1-1.4,1.2-1.4C194.8,284,195,284.2,195,284.8 M191.6,287c0.8,0.3,0.8,1.1,0,1.9c-0.9,0.9-1.7,0.8-2-0.3
		C189.2,287,190,286.4,191.6,287 M189,289.9c0.8,0.5,0.2,1.8-0.9,2.3c-1.1,0.5-1.4,0.3-1.4-1.1C186.7,289.6,187.7,289.1,189,289.9
		 M186.7,293.2c0,0.7-1.2,1.9-1.8,1.9c-0.3,0-0.8,0.6-1.1,1.4c-0.8,1.9-2.6,2-2.6,0.2c0-1.1,0.1-1.2,1.4-1.2c1.3,0,1.4-0.1,1.4-1.4
		s0.1-1.4,1.4-1.4C186.1,292.8,186.7,292.9,186.7,293.2 M179.9,299.1c0,0.2-0.3,0.5-0.6,0.6c-0.4,0.1-0.6,0-0.6-0.4
		c0-0.3,0.3-0.6,0.6-0.6C179.7,298.7,179.9,298.9,179.9,299.1 M177.2,301.9c0,0.2-0.4,0.6-0.8,0.8c-0.7,0.4-0.8,0.3-0.8-0.4
		c0-0.5,0.3-0.8,0.8-0.8C176.8,301.5,177.2,301.7,177.2,301.9 M174.4,304.4c0,0.8-1.5,1.4-1.7,0.7c-0.2-0.6,0-0.8,0.7-0.8
		C173.9,304.3,174.4,304.3,174.4,304.4 M171.2,307.8c-0.2,0.4-0.6,0.8-0.8,0.8c-0.2,0-0.4-0.4-0.5-0.8c-0.2-0.6,0-0.8,0.8-0.8
		C171.5,307.1,171.6,307.2,171.2,307.8 M168.2,310.1c0.4,0.6-0.5,1.5-1,1c-0.3-0.3-0.3-0.7-0.2-0.9
		C167.3,309.8,167.9,309.7,168.2,310.1 M165.5,313.1c0.3,0.6-0.5,1.1-1.7,1.1c-1.1,0-1.2-1-0.2-1.3
		C164.8,312.6,165.2,312.6,165.5,313.1 M162.9,315.6c0,0.6-0.3,1.2-0.8,1.4c-0.7,0.4-0.8,0.3-0.8-1c0-1.1,0.2-1.4,0.8-1.4
		C162.6,314.6,162.9,314.9,162.9,315.6 M156.7,319.4c-0.7,0.8-1.2,0.8-46.7,0.8c-46.1,0-46.9,0-46.9-1.3c0-0.2,21.2-0.3,47.1-0.3
		C157.4,318.6,157.4,318.6,156.7,319.4 M268.5,319c0,1.1-2.2,1.2-24.3,1.2c-22.3,0-22.8,0-23.5-0.8c-0.7-0.8-0.7-0.8,23.6-0.8
		C259.6,318.6,268.5,318.7,268.5,319"/>
	<path id="path2" class="st2" d="M63.4,77.7c-0.1,0.1-0.3,0.4-0.3,0.6s21.2,0.3,47.1,0.3c41.8,0,47.1-0.1,46.6-0.6
		C156.4,77.4,64,77.1,63.4,77.7 M220.5,78.1c-0.4,0.5,4.6,0.6,45.2,0.6c41.9,0,47.3-0.1,45.1-1C309.2,77.1,221,77.4,220.5,78.1
		 M312.6,80.6c0,1.1,0.1,1.2,1.2,1.2c1.3,0,1.8-1.7,0.6-2.1C313.1,79.2,312.6,79.4,312.6,80.6 M217.3,81.5l-1,1.3v115.8
		c0,127.2-0.2,117.7,2.1,118.5c0.4,0.2,0.5-21.1,0.5-118.4c0-65.2-0.1-118.6-0.3-118.6C218.4,80.2,217.8,80.8,217.3,81.5
		 M315.7,82.5c-0.9,0.9-0.2,2.1,1.1,2.1c1.6,0,1.8-0.7,0.7-1.7C316.7,82.2,316.1,82.1,315.7,82.5 M57.9,83.6
		c-1,1-1.1,229.4-0.1,230.2c0.3,0.3,0.7,0.4,0.8,0.3s0.1-52.2,0.1-115.7C58.6,88.4,58.6,82.9,57.9,83.6 M163.5,83.6
		c-0.9,0.9-0.8,1,0.8,1c1.5,0,1.8-0.5,0.6-1.2C164.3,83.1,164,83.2,163.5,83.6 M318.6,86.2c0,1.1,0.1,1.2,1.2,1.2
		c1.4,0,1.4-0.3,0.6-1.5C319.4,84.6,318.6,84.8,318.6,86.2 M167.1,86.2c-0.4,0.6,0.2,2.4,0.8,2.4c0.3,0,0.6-0.4,0.6-0.9
		C168.4,86.6,167.4,85.5,167.1,86.2 M321.4,89.2c0,1.2,0.1,1.4,1,1.4c1.4,0,1.7-1.1,0.6-2C321.7,87.5,321.4,87.6,321.4,89.2
		 M168.8,89.3c0,0.5,0.4,0.8,1,1c1.4,0.4,2-0.1,1.1-1C170.1,88.3,168.8,88.3,168.8,89.3 M324.1,92c0,1.4,0.4,1.7,1.8,1.1
		c0.8-0.3,0.8-1.1-0.1-1.9C324.7,90.2,324.1,90.4,324.1,92 M172.8,92.6c0,0.8,0.8,1.1,1.3,0.5c0.3-0.3-0.5-1.3-1-1.3
		C172.9,91.8,172.8,92.1,172.8,92.6 M327.1,94.6c-0.3,1.1,0.3,1.7,1.4,1.4c1-0.3,1.1-1.6,0.2-2C327.6,93.6,327.4,93.7,327.1,94.6
		 M175.6,95.3c0,0.8,0.8,1.1,1.3,0.5c0.3-0.3-0.5-1.3-1-1.3C175.7,94.5,175.6,94.9,175.6,95.3 M329.9,97.4c-0.4,1.4-0.3,1.5,1.1,1.5
		c1.6,0,1.8-0.7,0.7-1.7C330.8,96.3,330.2,96.4,329.9,97.4 M178.4,98.3c0,0.4,0.3,0.6,0.8,0.6c1,0,0.8-0.9-0.2-1.1
		C178.6,97.7,178.4,97.9,178.4,98.3 M181.4,100.4c-0.5,0.5-0.2,1.3,0.5,1.3c0.4,0,0.8-0.2,0.8-0.3
		C182.7,100.8,181.7,100.1,181.4,100.4 M332.9,100.9c0,0.5,0.3,0.8,0.9,0.8c0.8,0,0.8,0,0.1-0.8c-0.4-0.4-0.8-0.8-0.9-0.8
		C332.9,100.1,332.9,100.5,332.9,100.9 M184.3,103.7c0,0.5,0.3,0.8,0.9,0.8c0.8,0,0.8,0,0.1-0.8c-0.4-0.4-0.8-0.8-0.9-0.8
		C184.4,102.9,184.3,103.2,184.3,103.7 M335.6,103.7c0,0.5,0.3,0.8,0.9,0.8c0.8,0,0.8,0,0.1-0.8c-0.4-0.4-0.8-0.8-0.9-0.8
		C335.7,102.9,335.6,103.2,335.6,103.7 M187.1,106.7c0,0.3,0.4,0.6,0.8,0.6c0.7,0,0.8-0.1,0.3-0.6c-0.3-0.3-0.7-0.6-0.8-0.6
		S187.1,106.3,187.1,106.7 M340.4,106.7c-0.4,0.5-0.4,0.6,0.2,0.6c0.4,0,0.8,0.3,0.9,0.6c0.4,1,1.3,0.7,1.3-0.4
		C342.8,106.1,341.3,105.6,340.4,106.7 M189.6,108.6c-0.3,1.3,0.1,1.8,1.6,1.8c1.3,0,1.4,0.1,1.4,1.4c0,1.6,0.4,2,1.8,1.6
		c1.2-0.3,0.8-1.8-0.6-2.5c-0.5-0.3-1.2-1-1.6-1.5C191.4,107.8,189.9,107.4,189.6,108.6 M343.2,109.4c0,0.3,0.3,0.7,0.6,0.8
		c0.3,0.1,0.6,0.5,0.6,0.9c0,0.6,0.1,0.6,0.6,0.1c0.9-0.9,0.4-2.3-0.9-2.3C343.6,108.8,343.2,109.1,343.2,109.4 M195.8,198.6
		c0,49.2,0.1,84.3,0.4,84.3c0.2,0,0.5-0.3,0.6-0.6c0.6-1.6,0.3-166.9-0.4-167.4C195.9,114.4,195.8,123.7,195.8,198.6 M347.2,115.2
		c0,0.5,0.3,0.8,0.9,0.8c0.8,0,0.8,0,0.1-0.8c-0.4-0.4-0.8-0.8-0.9-0.8C347.2,114.4,347.2,114.8,347.2,115.2 M112.8,198.9v71.4
		l14.5-0.1l14.5-0.1v-69.9c0-38.4-0.1-70.4-0.3-71.1l-0.3-1.3l-1.1,1.1L139,130v68.8c0,37.8-0.1,69.1-0.2,69.4
		c-0.2,0.6-1.6,0.6-11.7,0.6h-11.4l-0.2-0.9c-0.1-0.5-0.2-31.8-0.2-69.5l0-68.6l-1.2-1.2l-1.2-1.2V198.9 M294.6,128.9
		c-1,1.2-1.1,1.5-0.8,2.7c0.2,0.8,0.2,1.8,0,2.8c-0.2,1-0.2,2,0,2.8c0.3,0.9,0.3,1.8,0,2.9c-0.3,1-0.3,2,0,2.9
		c0.2,0.9,0.2,1.9,0,2.8c-0.3,1-0.3,1.9,0,2.9c0.3,1,0.3,1.8,0,2.8c-0.3,0.9-0.3,1.9,0,2.9c0.2,1,0.2,2,0,2.9
		c-0.3,0.9-0.3,1.8,0,2.8c0.2,0.9,0.2,2,0,3c-0.2,1-0.2,2,0,2.8c0.3,0.9,0.3,1.8,0,2.9c-0.3,1-0.3,2,0,2.9c0.2,0.9,0.2,1.9,0,2.8
		c-0.3,1-0.3,1.9,0,2.9c0.3,1,0.3,1.8,0,2.8c-0.3,0.9-0.3,1.9,0,2.9c0.2,0.8,0.3,2,0.1,2.5c-0.2,0.5-0.4,1.5-0.5,2.1l-0.2,1.1h-8.7
		c-7.9,0-8.7-0.1-9.3-0.7c-0.6-0.7-0.7-3.3-0.7-29.4c0-28.4,0-28.7-0.8-28.7c-0.8,0-0.8,0.3-0.9,28.8c0,15.8-0.1,29.4-0.1,30.2
		l0,1.4l11.6,0.1l11.6,0.1V159c0-17.3,0-31.5-0.1-31.5C295.8,127.6,295.2,128.2,294.6,128.9 M347.2,205c0,0.4,0.2,0.8,0.4,0.8
		s0.6-0.4,0.8-0.8c0.4-0.7,0.3-0.8-0.4-0.8C347.4,204.2,347.2,204.4,347.2,205 M344.2,207.4c-0.4,0.7,0.2,2,1,2
		c0.6,0,1.9-1.5,1.5-1.8C346.2,207.2,344.4,207,344.2,207.4 M341.5,210c-0.4,0.4-0.3,2,0.1,2.3c0.6,0.4,1.6-0.2,1.9-1.1
		C343.8,210.2,342.3,209.2,341.5,210 M338.4,214.1c0,1.4,0.7,1.6,1.7,0.5c1-1.1,0.8-1.7-0.5-1.7C338.6,212.9,338.4,213,338.4,214.1
		 M335.6,216.9c0,1.3,0.8,1.6,1.8,0.6c1-1,0.8-1.8-0.6-1.8C335.8,215.7,335.6,215.8,335.6,216.9 M332.9,219.7c0,1.4,0.7,1.6,1.7,0.5
		c1-1.1,0.8-1.7-0.5-1.7C333,218.5,332.9,218.6,332.9,219.7 M329.8,221.8c-0.3,0.9,0.1,1.8,0.8,1.8c0.8,0,1.9-1.2,1.7-1.7
		C332.1,221.2,330.1,221.1,329.8,221.8 M327.2,224.3c-0.4,0.4-0.3,2.5,0.2,2.5c1,0,2-0.9,2-1.8C329.3,224.1,327.9,223.6,327.2,224.3
		 M324.1,228.2c0,1.6,0.7,1.8,1.7,0.7c1.1-1.2,0.8-2.1-0.5-2.1C324.2,226.8,324.1,226.9,324.1,228.2 M321.4,231.2
		c0,1.3,0.7,1.6,1.8,0.6c1-1,0.8-1.8-0.6-1.8C321.5,230,321.4,230.1,321.4,231.2 M318.2,233.3c0,1.8,1,2.3,2.1,1.1
		c1-1.1,0.8-1.7-0.7-1.7C318.6,232.8,318.2,233,318.2,233.3 M315.4,236.7c0,1.4,1.1,1.6,2.2,0.6c1.1-1.1,0.8-1.8-0.8-1.8
		C315.5,235.6,315.4,235.6,315.4,236.7 M312.6,239.1c0,0.6,0.4,0.8,1,0.6c0.8-0.3,0.7-0.9-0.2-0.9
		C313,238.7,312.6,238.9,312.6,239.1 M272.9,277.7c0,20.1,0.1,36.5,0.3,36.5c1.2,0,1.3-0.9,1.3-36.8c0-37.4,0-36.3-1.4-36.3
		C273,241.1,272.9,257.6,272.9,277.7 M309.1,241.4c-0.4,0.2-0.3,0.5,0.2,1c0.6,0.6,0.8,0.6,1.5,0.1
		C312.1,241.6,310.5,240.6,309.1,241.4 M192.7,285.4c0,1.5,0.7,1.8,1.8,0.8c1.1-1.1,0.8-2.2-0.6-2.2
		C192.7,284,192.7,284.1,192.7,285.4 M189.7,287.2c-0.4,0.7,0.2,2.4,0.8,2.4c0.7,0,1.8-1.1,1.8-1.8
		C192.3,286.9,190.2,286.4,189.7,287.2 M187,289.8c-0.3,0.3-0.3,2.3,0,2.6c0.4,0.4,2.1-0.6,2.4-1.4C189.7,289.9,187.8,289,187,289.8
		 M183.9,294.1c0,1.3-0.1,1.4-1.4,1.4c-1.3,0-1.4,0.1-1.4,1.2c0,1.8,1.8,1.7,2.6-0.2c0.3-0.8,0.8-1.4,1.1-1.4c0.6,0,1.8-1.3,1.8-1.9
		c0-0.3-0.6-0.5-1.4-0.5C184,292.8,183.9,292.8,183.9,294.1 M178.7,299.3c0,0.4,0.2,0.5,0.6,0.4c0.3-0.1,0.6-0.4,0.6-0.6
		s-0.3-0.4-0.6-0.4C179,298.7,178.7,299,178.7,299.3 M175.6,302.3c0,0.7,0.1,0.7,0.8,0.4c0.4-0.2,0.8-0.6,0.8-0.8
		c0-0.2-0.4-0.4-0.8-0.4C175.8,301.5,175.6,301.8,175.6,302.3 M172.7,305.1c0.2,0.8,0.3,0.8,1,0.1c1-0.9,0.9-0.9-0.2-0.9
		C172.7,304.3,172.5,304.4,172.7,305.1 M169.9,307.8c0.1,0.4,0.4,0.8,0.5,0.8c0.2,0,0.5-0.4,0.8-0.8c0.4-0.7,0.3-0.8-0.5-0.8
		C169.9,307.1,169.7,307.2,169.9,307.8 M167,310.3c-0.1,0.2-0.1,0.6,0.2,0.9c0.5,0.5,1.4-0.4,1-1C167.9,309.7,167.3,309.8,167,310.3
		 M163.6,312.9c-1,0.3-0.9,1.3,0.2,1.3c1.2,0,2.1-0.6,1.7-1.1C165.2,312.6,164.8,312.6,163.6,312.9 M161.3,316c0,1.3,0.1,1.4,0.8,1
		c0.5-0.2,0.8-0.8,0.8-1.4c0-0.7-0.2-1-0.8-1C161.4,314.6,161.3,314.9,161.3,316 M63.2,318.9c0,1.2,0.8,1.3,46.9,1.3
		c45.4,0,45.9,0,46.7-0.8c0.7-0.8,0.7-0.8-46.4-0.8C84.4,318.6,63.2,318.7,63.2,318.9 M220.7,319.4c0.8,0.9,45.4,1.3,47.1,0.4
		c2-1.1,0.1-1.2-23.5-1.2C220,318.6,219.9,318.6,220.7,319.4"/>
</g>
</svg>
