<svg id="Слой_1" data-name="DPlays" xmlns="http://www.w3.org/2000/svg" viewBox="0 0 382.82 382.82"><defs><style>.cls-1{fill:#333;}.cls-2{fill:#feb100;}</style></defs><rect class="cls-1" width="382.82" height="382.82" rx="191.41"/><path class="cls-2" d="M8.15,78.61c-35.33,0-32.28-.35-36.25-35-3.48-30.44,14-43.9,33.2-59.34,9.55-7.67,22-13.68,22.14-29.21.06-10-4.22-16.41-13.65-18.11C3.08-64.95-8-62.87-9.55-50.69c-1.87,15-10,15.86-21.87,15.17a409.18,409.18,0,0,0-41.59,0c-8.32.37-10.41-2.28-10.93-10.66-2.91-47.13,42.51-90.34,88.78-91.68s87.68,33.18,94,71.42c6.81,41.18,0,69.48-39.3,101C49.06,43,41.61,51,44.2,65c2.09,11.36-2.77,15-13.77,13.75C23.09,77.92,15.58,78.61,8.15,78.61Z" transform="translate(181.41 181.41)"/><path class="cls-2" d="M44.18,129.82c.15,21.77-13.7,36.14-35,36.29-21.83.16-36.2-13.62-36.38-34.9-.18-21.49,14-36.29,35-36.46C29.2,94.58,44,108.89,44.18,129.82Z" transform="translate(181.41 181.41)"/></svg>
