<svg id="Слой_1" data-name="Слой 1" xmlns="http://www.w3.org/2000/svg" viewBox="0 0 354.25 354.5"><defs><style>.cls-1{fill:#3276fe;}.cls-2{fill:#fefefe;}</style></defs><path class="cls-1" d="M5.44-167c101.94.7,182.84,78.76,181.28,181-.71,47.29-18.48,88.29-52.27,121.84-35.63,35.36-79,52.7-128.8,51.64-47.12-1-88-18.5-121.47-52.24-35.55-35.87-52.86-79.45-51.62-129.58,1.15-46.7,18.64-87.2,52-120.47C-80.94-149.33-38.88-165.71,5.44-167Z" transform="translate(167.5 167)"/><path class="cls-2" d="M21.6-11.69c0,6.86,0,13.72,0,20.58,0,2,0,4.51,2.18,5,2.66.59,6.33,1.32,7.91-1.5C36.78,3.3,43.77-4.62,48.25-14c3-6.37,6.07-12.77,9-19.22,1.77-4,4-6.16,8.85-5.93,8.58.41,17.2.2,25.8.08,3.89-.06,7.66-1.32,11.68-.07,4.79,1.5,6.8,4.33,5.23,9.07-2.45,7.37-6.67,13.81-11.11,20.09-7,9.87-14.24,19.59-21.13,29.55C72.76,25,73.29,28.11,78.1,32.81c7.71,7.54,16.37,14.07,23.6,22.12a38.61,38.61,0,0,1,6.92,9.9c2.16,4.84.56,9.43-4,12.17-4,2.39-8.56,3-13,3.58C82.81,81.7,74,82,65.14,80.06c-5.83-1.26-9.71-5.19-13.65-8.9-5.62-5.28-11.89-10-15.82-16.95a8,8,0,0,0-8.9-4c-3.5.84-4.53,3.82-5.34,7.18s-.33,6.41-.57,9.59a16.59,16.59,0,0,1-.63,4.71c-1.79,5-4,6.64-9.23,6.84-4.81.19-9.59.85-14.44.75-6.72-.14-13.13-1.23-19.11-4.5-4.73-2.59-9.68-4.78-14.4-7.39-8.62-4.76-14.79-12.29-21-19.6-7-8.22-13.66-16.72-20.16-25.33C-89.77,7-99.62-9.33-105-28.11c-2-7.1-.38-10.78,6.6-12.21a72.15,72.15,0,0,1,29.67-.33c5.62,1.18,8.48,4.68,10,9.5,4.5,14.15,13.33,26,20.55,38.66a22.64,22.64,0,0,0,5.92,6.16c4.23,3.32,8.69.27,9.68-6.22,1.65-10.77-.91-21.51-.06-32.26a7.68,7.68,0,0,0-.69-2.44c-1-3.4-3-5.56-6.72-5.8-.59,0-1.15-.42-1.74-.5-2-.26-3.87-1.45-4-3.21s1.46-3.12,3.28-4A35.71,35.71,0,0,1-15.93-45c8,0,16,0,23.94,0,9.08,0,13.58,4.47,13.59,13.48Q21.62-21.6,21.6-11.69Z" transform="translate(167.5 167)"/></svg>