<svg id="Слой_1" data-name="Слой 1" xmlns="http://www.w3.org/2000/svg" viewBox="0 0 102.79 102.79"><defs><style>.cls-1{fill:#fefefe;}.cls-2{fill:#fe4300;}</style></defs><path class="cls-1" d="M-41,10.41V9.88A50.88,50.88,0,0,1,9.89-41h1A50.88,50.88,0,0,1,61.8,9.89v1A50.88,50.88,0,0,1,10.92,61.8h-1A50.87,50.87,0,0,1-41,10.93Z" transform="translate(40.99 40.99)"/><path class="cls-2" d="M41.25,4.41a84.6,84.6,0,0,1,.15,8.79q0,3.32-.3,6.61a23.83,23.83,0,0,1-1,6.05,7.63,7.63,0,0,1-3.52,4.29,11.06,11.06,0,0,1-4.67,1.15q-3.8.36-7.6.48c-.84,0-1.69.07-2.53.1-6,.21-12,.21-18,.12-2.11,0-4.23,0-6.34-.14-1.84-.12-3.68-.07-5.51-.29-2.22-.26-4.52-.12-6.64-1a7.28,7.28,0,0,1-4.06-4,20,20,0,0,1-1.21-6c-.18-1.74-.19-3.48-.31-5.21-.22-3-.11-6-.09-9A60.49,60.49,0,0,1-20-.32,15.48,15.48,0,0,1-18.55-6.1a7.63,7.63,0,0,1,6.31-4.11c3-.3,5.92-.51,8.89-.61l3.2-.11c5.78-.22,11.56-.2,17.34-.11,2.14,0,4.28,0,6.42.14,1.81.11,3.63.06,5.43.28,2.2.28,4.47.13,6.58,1a7.4,7.4,0,0,1,4.31,4.35A19.35,19.35,0,0,1,41,.32,31.63,31.63,0,0,1,41.25,4.41Z" transform="translate(40.99 40.99)"/><path class="cls-1" d="M2.45-.51,22.37,9.88,2.45,20.22Z" transform="translate(40.99 40.99)"/></svg>